UNKNOWN
version=1
nRows=100
nColumns=5
inDegrees=no
endheader
time	r_elbow_flex	BIClong	BICshort	BRA
      0.00000000	      0.00000000	      0.00937993	      0.00937993	      0.01506828
      1.00000000	      1.31313131	      0.01016254	      0.01016254	      0.01496490
      2.00000000	      2.62626263	      0.01094314	      0.01094314	      0.01486284
      3.00000000	      3.93939394	      0.01172156	      0.01172156	      0.01476300
      4.00000000	      5.25252526	      0.01249766	      0.01249766	      0.01466178
      5.00000000	      6.56565657	      0.01327127	      0.01327127	      0.01456381
      6.00000000	      7.87878789	      0.01404223	      0.01404223	      0.01446516
      7.00000000	      9.19191920	      0.01481037	      0.01481037	      0.01436817
      8.00000000	     10.50505052	      0.01557554	      0.01557554	      0.01427172
      9.00000000	     11.81818183	      0.01633758	      0.01633758	      0.01417770
     10.00000000	     13.13131315	      0.01709631	      0.01709631	      0.01408394
     11.00000000	     14.44444446	      0.01785158	      0.01785158	      0.01399170
     12.00000000	     15.75757577	      0.01860322	      0.01860322	      0.01390176
     13.00000000	     17.07070709	      0.01935105	      0.01935105	      0.01381245
     14.00000000	     18.38383840	      0.02009493	      0.02009493	      0.01372505
     15.00000000	     19.69696972	      0.02083466	      0.02083466	      0.01363885
     16.00000000	     21.01010103	      0.02157009	      0.02157009	      0.01355459
     17.00000000	     22.32323235	      0.02230104	      0.02230104	      0.01347377
     18.00000000	     23.63636366	      0.02302734	      0.02302734	      0.01339337
     19.00000000	     24.94949498	      0.02374882	      0.02374882	      0.01331582
     20.00000000	     26.26262629	      0.02446529	      0.02446529	      0.01323944
     21.00000000	     27.57575761	      0.02517657	      0.02517657	      0.01316467
     22.00000000	     28.88888892	      0.02588250	      0.02588250	      0.01309230
     23.00000000	     30.20202023	      0.02658288	      0.02658288	      0.01302175
     24.00000000	     31.51515155	      0.02727753	      0.02727753	      0.01295393
     25.00000000	     32.82828286	      0.02796626	      0.02796626	      0.01291580
     26.00000000	     34.14141418	      0.02864889	      0.02864889	      0.01284820
     27.00000000	     35.45454549	      0.02932522	      0.02932522	      0.01278308
     28.00000000	     36.76767681	      0.02999506	      0.02999506	      0.01272045
     29.00000000	     38.08080812	      0.03065822	      0.03065822	      0.01266033
     30.00000000	     39.39393944	      0.03131448	      0.03131448	      0.01260274
     31.00000000	     40.70707075	      0.03196365	      0.03196365	      0.01254770
     32.00000000	     42.02020206	      0.03260553	      0.03260553	      0.01249521
     33.00000000	     43.33333338	      0.03323990	      0.03323990	      0.01244530
     34.00000000	     44.64646469	      0.03386655	      0.03386655	      0.01239795
     35.00000000	     45.95959601	      0.03448525	      0.03448525	      0.01274310
     36.00000000	     47.27272732	      0.03509580	      0.03509580	      0.01313708
     37.00000000	     48.58585864	      0.03569796	      0.03569796	      0.01352677
     38.00000000	     49.89898995	      0.03629151	      0.03629151	      0.01391200
     39.00000000	     51.21212127	      0.03687620	      0.03687620	      0.01429263
     40.00000000	     52.52525258	      0.03745179	      0.03745179	      0.01466849
     41.00000000	     53.83838390	      0.03801805	      0.03801805	      0.01503945
     42.00000000	     55.15151521	      0.03857471	      0.03857471	      0.01540533
     43.00000000	     56.46464652	      0.03912153	      0.03912153	      0.01576600
     44.00000000	     57.77777784	      0.03965823	      0.03965823	      0.01612127
     45.00000000	     59.09090915	      0.04018454	      0.04018454	      0.01647101
     46.00000000	     60.40404047	      0.04070019	      0.04070019	      0.01681505
     47.00000000	     61.71717178	      0.04120489	      0.04120489	      0.01715323
     48.00000000	     63.03030310	      0.04169834	      0.04169834	      0.01748538
     49.00000000	     64.34343441	      0.04218024	      0.04218024	      0.01781135
     50.00000000	     65.65656573	      0.04265029	      0.04265029	      0.01813097
     51.00000000	     66.96969704	      0.04310815	      0.04310815	      0.01844407
     52.00000000	     68.28282836	      0.04355351	      0.04355351	      0.01875048
     53.00000000	     69.59595967	      0.04398601	      0.04398601	      0.01905005
     54.00000000	     70.90909098	      0.04440530	      0.04440530	      0.01934260
     55.00000000	     72.22222230	      0.04481103	      0.04481103	      0.01962796
     56.00000000	     73.53535361	      0.04520282	      0.04520282	      0.01990595
     57.00000000	     74.84848493	      0.04558026	      0.04558026	      0.02017641
     58.00000000	     76.16161624	      0.04594298	      0.04594298	      0.02043916
     59.00000000	     77.47474756	      0.04629053	      0.04629053	      0.02069403
     60.00000000	     78.78787887	      0.04662251	      0.04662251	      0.02094083
     61.00000000	     80.10101019	      0.04693844	      0.04693844	      0.02117939
     62.00000000	     81.41414150	      0.04723788	      0.04723788	      0.02140954
     63.00000000	     82.72727282	      0.04752033	      0.04752033	      0.02163108
     64.00000000	     84.04040413	      0.04778531	      0.04778531	      0.02184384
     65.00000000	     85.35353544	      0.04803228	      0.04803228	      0.02204764
     66.00000000	     86.66666676	      0.04826070	      0.04826070	      0.02224229
     67.00000000	     87.97979807	      0.04847003	      0.04847003	      0.02242761
     68.00000000	     89.29292939	      0.04865966	      0.04865966	      0.02260340
     69.00000000	     90.60606070	      0.04882900	      0.04882900	      0.02276949
     70.00000000	     91.91919202	      0.04897742	      0.04897742	      0.02292569
     71.00000000	     93.23232333	      0.04910425	      0.04910425	      0.02307180
     72.00000000	     94.54545465	      0.04920882	      0.04920882	      0.02320765
     73.00000000	     95.85858596	      0.04929042	      0.04929042	      0.02333303
     74.00000000	     97.17171727	      0.04934831	      0.04934831	      0.02344776
     75.00000000	     98.48484859	      0.04938172	      0.04938172	      0.02355165
     76.00000000	     99.79797990	      0.04938986	      0.04938986	      0.02364451
     77.00000000	    101.11111122	      0.04937191	      0.04937191	      0.02372615
     78.00000000	    102.42424253	      0.04932699	      0.04932699	      0.02379638
     79.00000000	    103.73737385	      0.04925423	      0.04925423	      0.02385501
     80.00000000	    105.05050516	      0.04915269	      0.04915269	      0.02390185
     81.00000000	    106.36363648	      0.04902143	      0.04902143	      0.02393671
     82.00000000	    107.67676779	      0.04885946	      0.04885946	      0.02395941
     83.00000000	    108.98989911	      0.04866574	      0.04866574	      0.02396976
     84.00000000	    110.30303042	      0.04843924	      0.04843924	      0.02396759
     85.00000000	    111.61616173	      0.04817885	      0.04817885	      0.02395270
     86.00000000	    112.92929305	      0.04788347	      0.04788347	      0.02392492
     87.00000000	    114.24242436	      0.04755196	      0.04755196	      0.02388407
     88.00000000	    115.55555568	      0.04718313	      0.04718313	      0.02382999
     89.00000000	    116.86868699	      0.04677579	      0.04677579	      0.02376250
     90.00000000	    118.18181831	      0.04632873	      0.04632873	      0.02368143
     91.00000000	    119.49494962	      0.04584071	      0.04584071	      0.02358664
     92.00000000	    120.80808094	      0.04531048	      0.04531048	      0.02347796
     93.00000000	    122.12121225	      0.04473680	      0.04473680	      0.02335525
     94.00000000	    123.43434357	      0.04411842	      0.04411842	      0.02321836
     95.00000000	    124.74747488	      0.04345409	      0.04345409	      0.02306716
     96.00000000	    126.06060619	      0.04274259	      0.04274259	      0.02290152
     97.00000000	    127.37373751	      0.04198273	      0.04198273	      0.02272132
     98.00000000	    128.68686882	      0.04117336	      0.04117336	      0.02252644
     99.00000000	    130.00000014	      0.04031337	      0.04031337	      0.02231680
